#Comment line ignore any data following # character 
#Hierarchical Translation and Rotation (.htr) file 
[Header]	
#Header keywords are followed by a single value 
FileType HTR		#Single word string
DataType HTRS		#Translation followed by rotation and scale data
FileVersion 1		#integer
NumSegments 64		#integer
NumFrames 3		#integer
DataFrameRate 30		#integer, data frame rate in this file
EulerRotationOrder ZYX
CalibrationUnits mm
RotationUnits Degrees
GlobalAxisofGravity Y
BoneLengthAxis Y
ScaleFactor 1.00
[SegmentNames&Hierarchy]
#CHILD	PARENT
Pinger_Root GLOBAL
Pelvis Pinger_Root
L_Hip Pelvis
R_Hip Pelvis
Rear_Leg01 Pelvis
Spine1 Pelvis
L_Leg01 L_Hip
L_Leg02 L_Leg01
L_Leg03 L_Leg02
L_Foot L_Leg03
L_Toe1_01 L_Foot
L_Toe2_01 L_Foot
L_Toe3_01 L_Foot
planeAlignerLeft L_Foot
L_Toe1_02 L_Toe1_01
L_Toe1_03 L_Toe1_02
L_Toe2_02 L_Toe2_01
L_Toe2_03 L_Toe2_02
L_Toe3_02 L_Toe3_01
L_Toe3_03 L_Toe3_02
planeLockWeightLeft planeAlignerLeft
R_Leg01 R_Hip
R_Leg02 R_Leg01
R_Leg03 R_Leg02
R_Foot R_Leg03
planeAlignerRight R_Foot
R_Toe1_01 R_Foot
R_Toe2_01 R_Foot
R_Toe3_01 R_Foot
planeLockWeightRight planeAlignerRight
R_Toe1_02 R_Toe1_01
R_Toe1_03 R_Toe1_02
R_Toe2_02 R_Toe2_01
R_Toe2_03 R_Toe2_02
R_Toe3_02 R_Toe3_01
R_Toe3_03 R_Toe3_02
Rear_Leg02 Rear_Leg01
Rear_Leg03 Rear_Leg02
Rear_Leg04 Rear_Leg03
Rear_Foot Rear_Leg04
planeAlignerCenter Rear_Foot
Rear_Toe1_01 Rear_Foot
Rear_Toe2_01 Rear_Foot
Rear_Toe3_01 Rear_Foot
planeLockWeightCenter planeAlignerCenter
Rear_Toe1_02 Rear_Toe1_01
Rear_Toe1_03 Rear_Toe1_02
Rear_Toe2_02 Rear_Toe2_01
Rear_Toe2_03 Rear_Toe2_02
Rear_Toe3_02 Rear_Toe3_01
Rear_Toe3_03 Rear_Toe3_02
Back_Bone Spine1
Head Spine1
Motor_Bone Back_Bone
Ping_Mechanism Back_Bone
BN_LookIK Head
bottomMouth Head
L_Mouth01 Head
L_mouthFront Head
mouthGun Head
R_Mouth01 Head
R_mouthFront Head
TopMouth Head
weapon_bone Head
[BasePosition]
#SegmentName Tx, Ty, Tz, Rx, Ry, Rz, BoneLength
Pinger_Root 0.000000 0.000000 0.000000 -90.000000 0.000000 0.000000 10.000000 
Pelvis 0.000000 0.000000 0.000000 0.000000 0.000000 0.000000 10.000000 
L_Hip 0.000000 0.000000 0.000000 0.000000 0.000000 0.000000 10.000000 
R_Hip 0.000000 0.000000 0.000000 0.000000 0.000000 0.000000 10.000000 
Rear_Leg01 0.000000 0.000000 0.000000 0.000000 0.000000 0.000000 10.000000 
Spine1 0.000000 0.000000 0.000000 0.000000 0.000000 0.000000 10.000000 
L_Leg01 0.000000 0.000000 0.000000 0.000000 0.000000 0.000000 10.000000 
L_Leg02 0.000000 0.000000 0.000000 0.000000 0.000000 0.000000 10.000000 
L_Leg03 0.000000 0.000000 0.000000 0.000000 0.000000 0.000000 10.000000 
L_Foot 0.000000 0.000000 0.000000 0.000000 0.000000 0.000000 10.000000 
L_Toe1_01 0.000000 0.000000 0.000000 0.000000 0.000000 0.000000 10.000000 
L_Toe2_01 0.000000 0.000000 0.000000 0.000000 0.000000 0.000000 10.000000 
L_Toe3_01 0.000000 0.000000 0.000000 0.000000 0.000000 0.000000 10.000000 
planeAlignerLeft 0.000000 0.000000 0.000000 0.000000 0.000000 0.000000 10.000000 
L_Toe1_02 0.000000 0.000000 0.000000 0.000000 0.000000 0.000000 10.000000 
L_Toe1_03 0.000000 0.000000 0.000000 0.000000 0.000000 0.000000 10.000000 
L_Toe2_02 0.000000 0.000000 0.000000 0.000000 0.000000 0.000000 10.000000 
L_Toe2_03 0.000000 0.000000 0.000000 0.000000 0.000000 0.000000 10.000000 
L_Toe3_02 0.000000 0.000000 0.000000 0.000000 0.000000 0.000000 10.000000 
L_Toe3_03 0.000000 0.000000 0.000000 0.000000 0.000000 0.000000 10.000000 
planeLockWeightLeft 0.000000 0.000000 0.000000 0.000000 0.000000 0.000000 10.000000 
R_Leg01 0.000000 0.000000 0.000000 0.000000 0.000000 0.000000 10.000000 
R_Leg02 0.000000 0.000000 0.000000 0.000000 0.000000 0.000000 10.000000 
R_Leg03 0.000000 0.000000 0.000000 0.000000 0.000000 0.000000 10.000000 
R_Foot 0.000000 0.000000 0.000000 0.000000 0.000000 0.000000 10.000000 
planeAlignerRight 0.000000 0.000000 0.000000 0.000000 0.000000 0.000000 10.000000 
R_Toe1_01 0.000000 0.000000 0.000000 0.000000 0.000000 0.000000 10.000000 
R_Toe2_01 0.000000 0.000000 0.000000 0.000000 0.000000 0.000000 10.000000 
R_Toe3_01 0.000000 0.000000 0.000000 0.000000 0.000000 0.000000 10.000000 
planeLockWeightRight 0.000000 0.000000 0.000000 0.000000 0.000000 0.000000 10.000000 
R_Toe1_02 0.000000 0.000000 0.000000 0.000000 0.000000 0.000000 10.000000 
R_Toe1_03 0.000000 0.000000 0.000000 0.000000 0.000000 0.000000 10.000000 
R_Toe2_02 0.000000 0.000000 0.000000 0.000000 0.000000 0.000000 10.000000 
R_Toe2_03 0.000000 0.000000 0.000000 0.000000 0.000000 0.000000 10.000000 
R_Toe3_02 0.000000 0.000000 0.000000 0.000000 0.000000 0.000000 10.000000 
R_Toe3_03 0.000000 0.000000 0.000000 0.000000 0.000000 0.000000 10.000000 
Rear_Leg02 0.000000 0.000000 0.000000 0.000000 0.000000 0.000000 10.000000 
Rear_Leg03 0.000000 0.000000 0.000000 0.000000 0.000000 0.000000 10.000000 
Rear_Leg04 0.000000 0.000000 0.000000 0.000000 0.000000 0.000000 10.000000 
Rear_Foot 0.000000 0.000000 0.000000 0.000000 0.000000 0.000000 10.000000 
planeAlignerCenter 0.000000 0.000000 0.000000 0.000000 0.000000 0.000000 10.000000 
Rear_Toe1_01 0.000000 0.000000 0.000000 0.000000 0.000000 0.000000 10.000000 
Rear_Toe2_01 0.000000 0.000000 0.000000 0.000000 0.000000 0.000000 10.000000 
Rear_Toe3_01 0.000000 0.000000 0.000000 0.000000 0.000000 0.000000 10.000000 
planeLockWeightCenter 0.000000 0.000000 0.000000 0.000000 0.000000 0.000000 10.000000 
Rear_Toe1_02 0.000000 0.000000 0.000000 0.000000 0.000000 0.000000 10.000000 
Rear_Toe1_03 0.000000 0.000000 0.000000 0.000000 0.000000 0.000000 10.000000 
Rear_Toe2_02 0.000000 0.000000 0.000000 0.000000 0.000000 0.000000 10.000000 
Rear_Toe2_03 0.000000 0.000000 0.000000 0.000000 0.000000 0.000000 10.000000 
Rear_Toe3_02 0.000000 0.000000 0.000000 0.000000 0.000000 0.000000 10.000000 
Rear_Toe3_03 0.000000 0.000000 0.000000 0.000000 0.000000 0.000000 10.000000 
Back_Bone 0.000000 0.000000 0.000000 0.000000 0.000000 0.000000 10.000000 
Head 0.000000 0.000000 0.000000 0.000000 0.000000 0.000000 10.000000 
Motor_Bone 0.000000 0.000000 0.000000 0.000000 0.000000 0.000000 10.000000 
Ping_Mechanism 0.000000 0.000000 0.000000 0.000000 0.000000 0.000000 10.000000 
BN_LookIK 0.000000 0.000000 0.000000 0.000000 0.000000 0.000000 10.000000 
bottomMouth 0.000000 0.000000 0.000000 0.000000 0.000000 0.000000 10.000000 
L_Mouth01 0.000000 0.000000 0.000000 0.000000 0.000000 0.000000 10.000000 
L_mouthFront 0.000000 0.000000 0.000000 0.000000 0.000000 0.000000 10.000000 
mouthGun 0.000000 0.000000 0.000000 0.000000 0.000000 0.000000 10.000000 
R_Mouth01 0.000000 0.000000 0.000000 0.000000 0.000000 0.000000 10.000000 
R_mouthFront 0.000000 0.000000 0.000000 0.000000 0.000000 0.000000 10.000000 
TopMouth 0.000000 0.000000 0.000000 0.000000 0.000000 0.000000 10.000000 
weapon_bone 0.000000 0.000000 0.000000 0.000000 0.000000 0.000000 10.000000 
#Beginning of Data. Separated by tabs
#Fr	Tx	Ty	Tz	Rx	Ry	Rz	SF
[Pinger_Root]
58 0.000000 0.000000 0.000000 -0.000075 -0.000000 -0.000020 0.000000
59 0.000000 0.000000 0.000000 -0.000075 -0.000000 -0.000020 0.000000
60 0.000000 0.000000 0.000000 -0.000075 -0.000000 -0.000020 0.000000
[Pelvis]
58 74.655708 916.536743 4425.409180 -101.171921 -86.808189 93.554787 4519.940430
59 73.380722 916.536743 4429.171875 -100.993446 -86.643860 93.375992 4523.603516
60 72.844673 916.536743 4430.592773 -100.831062 -86.479301 93.213142 4524.985840
[L_Hip]
58 5.766392 125.831482 872.656799 160.158691 -45.484905 122.312202 881.701050
59 5.766392 125.831482 872.656799 160.158691 -45.484905 122.312202 881.701050
60 5.766392 125.831482 872.656799 160.158691 -45.484905 122.312202 881.701050
[R_Hip]
58 5.765438 125.836372 -872.654907 38.087841 49.812687 125.703735 881.699829
59 5.765438 125.836372 -872.654907 38.087841 49.812687 125.703735 881.699829
60 5.765438 125.836372 -872.654907 38.087841 49.812687 125.703735 881.699829
[Rear_Leg01]
58 -192.298416 -925.602966 -0.001907 169.707550 2.028558 -158.713074 945.367432
59 -192.298416 -925.602966 -0.001907 169.713318 2.051049 -158.821182 945.367432
60 -192.298416 -925.602966 -0.001907 169.705460 2.030401 -159.017639 945.367432
[Spine1]
58 290.604584 5.007505 0.000477 7.265744 -0.619986 19.266817 290.647736
59 290.604584 5.007505 0.000477 7.265744 -0.619986 19.266817 290.647736
60 290.604584 5.007505 0.000477 7.265745 -0.619986 19.266819 290.647736
[L_Leg01]
58 761.932007 -0.002384 -0.069261 23.377356 -15.365616 -9.984965 761.932068
59 761.932007 -0.002384 -0.069261 23.320982 -15.393944 -9.962108 761.932068
60 761.932007 -0.002384 -0.069261 23.204075 -15.464653 -9.752983 761.932068
[L_Leg02]
58 1441.140503 -0.000954 -0.000715 2.574390 -0.183689 -128.739517 1441.140503
59 1441.140503 -0.000954 -0.000715 2.579451 -0.183789 -128.780609 1441.140503
60 1441.140503 -0.000954 -0.000715 2.584512 -0.183885 -128.821716 1441.140503
[L_Leg03]
58 1686.963989 -0.000715 -0.000954 -0.029947 0.014715 118.122902 1686.963989
59 1686.963989 -0.000715 -0.000954 -0.029946 0.014715 118.124146 1686.963989
60 1686.963989 -0.000715 -0.000954 -0.029946 0.014716 118.125374 1686.963989
[L_Foot]
58 3041.570068 -30.715107 11.297464 1.844316 13.083335 55.490295 3041.746094
59 3041.570068 -30.715107 11.297464 1.854907 13.083342 55.488785 3041.746094
60 3041.570068 -30.715107 11.297464 1.865498 13.083350 55.487278 3041.746094
[L_Toe1_01]
58 -188.216690 -224.732346 -21.137953 93.729408 -6.841427 -172.086411 293.899567
59 -188.216690 -224.732346 -21.137953 93.728127 -6.844065 -172.071915 293.899567
60 -188.216690 -224.732346 -21.137953 93.726837 -6.846700 -172.057419 293.899567
[L_Toe2_01]
58 200.746536 -219.926590 148.838394 -90.079247 -26.304861 -52.555771 332.896027
59 200.746536 -219.926590 148.838394 -90.073715 -26.305546 -52.567955 332.896027
60 200.746536 -219.926590 148.838394 -90.068207 -26.306236 -52.580147 332.896027
[L_Toe3_01]
58 188.832520 -219.859131 -191.078659 -99.787926 13.895251 -67.568245 347.140900
59 188.832520 -219.859131 -191.078659 -99.787956 13.884004 -67.589211 347.140900
60 188.832520 -219.859131 -191.078659 -99.787994 13.872755 -67.610168 347.140900
[planeAlignerLeft]
58 0.812531 -811.448792 -0.314951 0.000000 -90.000000 -90.001900 811.449280
59 0.812531 -811.448792 -0.314951 0.000000 -90.000000 -90.001900 811.449280
60 0.812531 -811.448792 -0.314951 0.000000 -90.000000 -90.001900 811.449280
[L_Toe1_02]
58 413.761139 0.000477 0.000000 0.000203 -25.410625 -0.000182 413.761139
59 413.761139 0.000477 0.000000 0.000203 -25.410625 -0.000182 413.761139
60 413.761139 0.000477 0.000000 0.000203 -25.410625 -0.000182 413.761139
[L_Toe1_03]
58 464.317322 0.000358 -0.000089 0.003750 53.519661 0.003750 464.317322
59 464.317322 0.000358 -0.000089 0.003742 53.439400 0.003742 464.317322
60 464.317322 0.000358 -0.000089 0.003734 53.359097 0.003734 464.317322
[L_Toe2_02]
58 342.235809 -0.000477 0.000238 0.001188 -72.451057 0.001188 342.235809
59 342.235809 -0.000477 0.000238 0.001188 -72.447281 0.001188 342.235809
60 342.235809 -0.000477 0.000238 0.001188 -72.443489 0.001188 342.235809
[L_Toe2_03]
58 420.210846 -0.000715 0.000000 0.030052 85.523636 0.030052 420.210846
59 420.210846 -0.000715 0.000000 0.029563 85.449768 0.029563 420.210846
60 420.210846 -0.000715 0.000000 0.029090 85.375565 0.029090 420.210846
[L_Toe3_02]
58 329.270111 0.000954 0.000000 0.001178 -80.585121 0.001178 329.270111
59 329.270111 0.000954 0.000000 0.001178 -80.480331 0.001178 329.270111
60 329.270111 0.000954 0.000000 0.001178 -80.480331 0.001178 329.270111
[L_Toe3_03]
58 439.137451 -0.001907 0.000954 -179.996033 78.477921 -179.992523 439.137451
59 439.137451 -0.001907 0.000954 -179.996017 78.520569 -179.992493 439.137451
60 439.137451 -0.001907 0.000954 -179.995987 78.563148 -179.992477 439.137451
[planeLockWeightLeft]
58 -0.000954 0.000238 -0.000305 -0.011826 -0.004376 0.005620 0.001029
59 -0.000954 0.000238 -0.000305 -0.011826 -0.004376 0.005620 0.001029
60 -0.000954 0.000238 -0.000305 -0.011826 -0.004376 0.005620 0.001029
[R_Leg01]
58 761.455627 -0.001907 -0.000358 119.779579 -7.510283 35.975323 761.455688
59 761.455627 -0.001907 -0.000358 119.850426 -7.615926 35.929081 761.455688
60 761.455627 -0.001907 -0.000358 119.921364 -7.721516 35.882698 761.455688
[R_Leg02]
58 1441.140625 0.000000 -0.000238 -1.349659 -0.201360 -119.130547 1441.140625
59 1441.140625 0.000000 -0.000238 -1.343180 -0.197651 -118.964165 1441.140625
60 1441.140625 0.000000 -0.000238 -1.336690 -0.193961 -118.797783 1441.140625
[R_Leg03]
58 1686.963989 0.000954 0.001431 0.080246 -0.041593 131.467514 1686.963989
59 1686.963989 0.000954 0.001431 0.079901 -0.041746 131.462921 1686.963989
60 1686.963989 0.000954 0.001431 0.079556 -0.041899 131.458344 1686.963989
[R_Foot]
58 3041.560059 -30.531288 -11.204481 -0.497737 -24.678814 55.555229 3041.734131
59 3041.560059 -30.531288 -11.204481 -0.510848 -24.681379 55.485535 3041.734131
60 3041.560059 -30.531288 -11.204481 -0.523955 -24.683956 55.415840 3041.734131
[planeAlignerRight]
58 -0.635147 -812.270569 -0.364304 0.000000 -89.960434 -90.005180 812.270874
59 -0.635147 -812.270569 -0.364304 0.000000 -89.960434 -90.005180 812.270874
60 -0.635147 -812.270569 -0.364304 0.000000 -89.960434 -90.005180 812.270874
[R_Toe1_01]
58 -188.383347 -224.864899 21.052242 76.749023 -0.261747 -172.787476 294.101532
59 -188.383347 -224.864899 21.052242 76.751938 -0.292316 -172.775711 294.101532
60 -188.383347 -224.864899 21.052242 76.754852 -0.322885 -172.763962 294.101532
[R_Toe2_01]
58 200.637817 -220.002121 -148.787384 -91.793327 33.050537 -59.170464 332.857574
59 200.637817 -220.002121 -148.787384 -91.783295 33.015182 -59.172771 332.857574
60 200.637817 -220.002121 -148.787384 -91.773293 32.979851 -59.175121 332.857574
[R_Toe3_01]
58 188.606735 -220.092957 191.126343 -73.267776 -8.386879 -73.690529 347.192566
59 188.606735 -220.092957 191.126343 -73.264557 -8.392262 -73.695572 347.192566
60 188.606735 -220.092957 191.126343 -73.261345 -8.397646 -73.700615 347.192566
[planeLockWeightRight]
58 -0.000477 0.000000 0.000000 -0.011823 -0.004379 -0.000027 0.000477
59 -0.000477 0.000000 0.000000 -0.011823 -0.004379 -0.000027 0.000477
60 -0.000477 0.000000 0.000000 -0.011823 -0.004379 -0.000027 0.000477
[R_Toe1_02]
58 413.762085 0.000477 -0.000119 0.001394 -24.736450 0.001394 413.762085
59 413.762085 0.000477 -0.000119 0.001394 -24.717209 0.001394 413.762085
60 413.762085 0.000477 -0.000119 0.001394 -24.697966 0.001394 413.762085
[R_Toe1_03]
58 464.317810 0.000000 0.001088 0.006579 69.448944 0.006579 464.317810
59 464.317810 0.000000 0.001088 0.006591 69.485062 0.006591 464.317810
60 464.317810 0.000000 0.001088 0.006602 69.521164 0.006602 464.317810
[R_Toe2_02]
58 342.234741 -0.000954 0.000238 0.001197 -67.171242 0.001197 342.234741
59 342.234741 -0.000954 0.000238 0.001197 -67.174629 0.001197 342.234741
60 342.234741 -0.000954 0.000238 0.001197 -67.178009 0.001197 342.234741
[R_Toe2_03]
58 420.210846 0.000715 -0.000268 0.008187 73.516701 0.008187 420.210846
59 420.210846 0.000715 -0.000268 0.008197 73.535774 0.008197 420.210846
60 420.210846 0.000715 -0.000268 0.008206 73.554817 0.008206 420.210846
[R_Toe3_02]
58 329.270355 -0.000477 -0.000954 0.001184 -74.649178 0.001184 329.270355
59 329.270355 -0.000477 -0.000954 0.001184 -74.636131 0.001184 329.270355
60 329.270355 -0.000477 -0.000954 0.001184 -74.623116 0.001184 329.270355
[R_Toe3_03]
58 439.137939 0.000238 0.001431 -0.012066 83.611679 -0.008564 439.137939
59 439.137939 0.000238 0.001431 -0.011908 83.512421 -0.008406 439.137939
60 439.137939 0.000238 0.001431 -0.011755 83.412956 -0.008253 439.137939
[Rear_Leg02]
58 1162.777710 -0.029802 0.005960 0.671185 -2.910555 -124.427345 1162.777710
59 1162.777710 -0.029802 0.005960 0.662726 -2.911940 -124.268944 1162.777710
60 1162.777710 -0.029802 0.005960 0.654263 -2.913302 -124.110512 1162.777710
[Rear_Leg03]
58 607.192505 -0.013351 -0.073195 0.008970 -0.003729 64.819046 607.192505
59 607.192505 -0.013351 -0.073195 0.008138 -0.003192 64.725349 607.192505
60 607.192505 -0.013351 -0.073195 0.007305 -0.002657 64.631645 607.192505
[Rear_Leg04]
58 995.874512 -0.020504 -0.011921 -0.040639 -0.014832 59.170033 995.874573
59 995.874512 -0.020504 -0.011921 -0.040619 -0.014887 59.016598 995.874573
60 995.874512 -0.020504 -0.011921 -0.040599 -0.014941 58.863171 995.874573
[Rear_Foot]
58 3096.176270 -0.067472 -0.041425 -144.918198 85.650536 47.978775 3096.176270
59 3096.176270 -0.067472 -0.041425 -144.782135 85.663063 48.096992 3096.176270
60 3096.176270 -0.067472 -0.041425 -144.645050 85.675461 48.216019 3096.176270
[planeAlignerCenter]
58 0.350077 0.966311 -838.790894 0.000009 0.000003 -179.999985 838.791565
59 0.350077 0.966311 -838.790894 0.000009 0.000003 -179.999985 838.791565
60 0.350077 0.966311 -838.790894 0.000009 0.000003 -179.999985 838.791565
[Rear_Toe1_01]
58 0.653352 83.966492 -371.173737 0.288091 41.914127 90.413170 380.553192
59 0.653352 83.966492 -371.173737 0.288091 41.914127 90.413170 380.553192
60 0.653352 83.966492 -371.173737 0.288091 41.914127 90.413170 380.553192
[Rear_Toe2_01]
58 178.200760 -294.826019 -362.060547 -7.196267 34.406261 -66.271294 499.765686
59 178.200760 -294.826019 -362.060547 -7.196267 34.406261 -66.271294 499.765686
60 178.200760 -294.826019 -362.060547 -7.196267 34.406261 -66.271294 499.765686
[Rear_Toe3_01]
58 -153.359680 -308.780914 -362.060852 3.289418 33.518005 -112.540970 499.952881
59 -153.359680 -308.780914 -362.060852 3.289418 33.518005 -112.540970 499.952881
60 -153.359680 -308.780914 -362.060852 3.289418 33.518005 -112.540970 499.952881
[planeLockWeightCenter]
58 -0.000062 0.000238 0.000000 -0.011814 -0.004373 -0.000015 0.000246
59 -0.000062 0.000238 0.000000 -0.011814 -0.004373 -0.000015 0.000246
60 -0.000062 0.000238 0.000000 -0.011814 -0.004373 -0.000015 0.000246
[Rear_Toe1_02]
58 379.707825 0.194073 0.000477 -0.000242 -31.676744 0.006934 379.707855
59 379.707825 0.194073 0.000477 -0.000242 -31.676744 0.006934 379.707855
60 379.707825 0.194073 0.000477 -0.000242 -31.676744 0.006934 379.707855
[Rear_Toe1_03]
58 500.129700 0.165701 0.000119 -0.000103 51.902481 0.007295 500.129761
59 500.129700 0.165701 0.000119 -0.000103 51.902466 0.007295 500.129761
60 500.129700 0.165701 0.000119 -0.000103 51.902466 0.007295 500.129761
[Rear_Toe2_02]
58 340.494507 0.000238 -0.000954 0.001192 -69.854523 0.001192 340.494507
59 340.494507 0.000238 -0.000954 0.001192 -69.854523 0.001192 340.494507
60 340.494507 0.000238 -0.000954 0.001192 -69.854523 0.001192 340.494507
[Rear_Toe2_03]
58 433.103577 0.000000 0.000238 0.006696 69.810326 0.006696 433.103546
59 433.103577 0.000000 0.000238 0.006696 69.810326 0.006696 433.103546
60 433.103577 0.000000 0.000238 0.006696 69.810326 0.006696 433.103546
[Rear_Toe3_02]
58 340.494141 -0.000358 -0.000477 0.008288 -67.274704 -0.009460 340.494171
59 340.494141 -0.000358 -0.000477 0.008288 -67.274704 -0.009460 340.494171
60 340.494141 -0.000358 -0.000477 0.008288 -67.274704 -0.009460 340.494171
[Rear_Toe3_03]
58 433.103577 0.001431 -0.000238 -0.000972 65.959007 -0.004547 433.103546
59 433.103577 0.001431 -0.000238 -0.000972 65.958984 -0.004547 433.103546
60 433.103577 0.001431 -0.000238 -0.000972 65.958984 -0.004547 433.103546
[Back_Bone]
58 1312.175781 -701.934692 0.000954 0.000023 -0.000007 -85.606667 1488.125488
59 1312.175781 -701.934692 0.000954 0.000023 -0.000007 -85.606667 1488.125488
60 1312.175781 -701.934692 0.000954 0.000023 -0.000007 -85.606667 1488.125488
[Head]
58 1406.159424 809.709290 0.001431 -0.005301 -1.483282 7.770797 1622.625488
59 1406.159424 809.709290 0.001431 -0.004845 -1.482693 7.770583 1622.625488
60 1406.159424 809.709290 0.001431 -0.004389 -1.482104 7.770369 1622.625488
[Motor_Bone]
58 1158.364380 -417.834747 0.000477 -0.000105 0.000046 -105.985291 1231.419434
59 1158.364380 -417.834747 0.000477 -0.000105 0.000046 -105.985291 1231.419434
60 1158.364380 -417.834747 0.000477 -0.000105 0.000046 -105.985291 1231.419434
[Ping_Mechanism]
58 1215.237793 -433.297150 0.000954 0.000103 -0.000053 82.120995 1290.174072
59 1215.237793 -433.297150 0.000954 0.000103 -0.000053 82.120995 1290.174072
60 1215.237793 -433.297150 0.000954 0.000103 -0.000053 82.120995 1290.174072
[BN_LookIK]
58 193.241119 1380.371704 -0.002861 0.000000 89.965736 -31.038179 1393.832153
59 193.241119 1380.371704 -0.002861 0.000000 89.965736 -31.038179 1393.832153
60 193.241119 1380.371704 -0.002861 0.000000 89.965736 -31.038179 1393.832153
[bottomMouth]
58 -435.092926 615.759399 -0.000954 -0.000022 0.000016 73.527184 753.966492
59 -435.092926 615.759399 -0.000954 -0.000022 0.000016 73.527184 753.966492
60 -435.092926 615.759399 -0.000954 -0.000022 0.000016 73.527184 753.966492
[L_Mouth01]
58 554.440979 7.658243 838.222046 150.204178 23.759130 109.605339 1005.027161
59 554.440979 7.658243 838.222046 150.204178 23.759130 109.605339 1005.027161
60 554.440979 7.658243 838.222046 150.204178 23.759130 109.605339 1005.027161
[L_mouthFront]
58 551.629089 934.514771 339.150421 0.000081 2.804060 79.119301 1136.941284
59 551.629089 934.514771 339.150421 0.000081 2.804060 79.119301 1136.941284
60 551.629089 934.514771 339.150421 0.000081 2.804060 79.119301 1136.941284
[mouthGun]
58 55.332661 1627.420898 0.000000 0.000023 0.000009 -11.038128 1628.361328
59 55.332661 1627.420898 0.000000 0.000023 0.000009 -11.038128 1628.361328
60 55.332661 1627.420898 0.000000 0.000023 0.000009 -11.038128 1628.361328
[R_Mouth01]
58 554.442383 7.659197 -838.223938 29.795891 -23.759109 109.605331 1005.029541
59 554.442383 7.659197 -838.223938 29.795891 -23.759109 109.605331 1005.029541
60 554.442383 7.659197 -838.223938 29.795891 -23.759109 109.605331 1005.029541
[R_mouthFront]
58 551.629089 934.514282 -339.151367 0.000029 -2.803930 79.119133 1136.941162
59 551.629089 934.514282 -339.151367 0.000029 -2.803930 79.119133 1136.941162
60 551.629089 934.514282 -339.151367 0.000029 -2.803930 79.119133 1136.941162
[TopMouth]
58 461.269867 -56.106091 -0.008583 -0.000059 -0.000268 92.025169 464.669525
59 461.269867 -56.106091 -0.008583 -0.000059 -0.000268 92.025169 464.669525
60 461.269867 -56.106091 -0.008583 -0.000059 -0.000268 92.025169 464.669525
[weapon_bone]
58 -987.239868 1448.372803 0.001431 0.000000 89.965736 -31.038221 1752.833740
59 -987.239868 1448.372803 0.001431 0.000000 89.965736 -31.038221 1752.833740
60 -987.239868 1448.372803 0.001431 0.000000 89.965736 -31.038221 1752.833740
